<?xml version="1.0" encoding="UTF-8" standalone="no"?>
<!-- Created with Inkscape (http://www.inkscape.org/) -->

<svg
   inkscape:version="1.2.2 (b0a8486541, 2022-12-01)"
   sodipodi:docname="gloq_black_long.svg"
   xml:space="preserve"
   id="svg5"
   version="1.1"
   viewBox="0 0 243.94096 126.19019"
   height="126.19019mm"
   width="243.94096mm"
   xmlns:inkscape="http://www.inkscape.org/namespaces/inkscape"
   xmlns:sodipodi="http://sodipodi.sourceforge.net/DTD/sodipodi-0.dtd"
   xmlns="http://www.w3.org/2000/svg"
   xmlns:svg="http://www.w3.org/2000/svg"><sodipodi:namedview
     id="namedview7"
     pagecolor="#ffffff"
     bordercolor="#000000"
     borderopacity="0.25"
     inkscape:showpageshadow="2"
     inkscape:pageopacity="0.0"
     inkscape:pagecheckerboard="0"
     inkscape:deskcolor="#d1d1d1"
     inkscape:document-units="mm"
     showgrid="false"
     inkscape:zoom="1.0423972"
     inkscape:cx="533.38595"
     inkscape:cy="261.41668"
     inkscape:window-width="1920"
     inkscape:window-height="998"
     inkscape:window-x="0"
     inkscape:window-y="0"
     inkscape:window-maximized="1"
     inkscape:current-layer="g23836" /><defs
     id="defs2"><inkscape:path-effect
   effect="mirror_symmetry"
   start_point="1.5931433,219.69098"
   end_point="1.5931433,330.01234"
   center_point="1.5931433,274.85166"
   id="path-effect23743"
   is_visible="true"
   lpeversion="1.2"
   lpesatellites=""
   mode="free"
   discard_orig_path="false"
   fuse_paths="false"
   oposite_fuse="false"
   split_items="false"
   split_open="false"
   link_styles="false" />
	
	

		
		
		
		
	</defs><g
     inkscape:label="Layer 1"
     inkscape:groupmode="layer"
     id="layer1"
     transform="translate(-22.038281,-1.246604)"><g
       id="g83"
       transform="matrix(0.3273632,0,0,0.3273632,22.038281,27.68791)"><g
         class="st0"
         id="g17"
         transform="translate(0.00401184,0.00401184)">
		<g
   class="st1"
   id="g15">
			<path
   d="m 870.3,1.3 c 12.1,0 21.9,9.8 21.9,21.9 0,12.1 -9.8,21.9 -21.9,21.9 -12.1,0 -21.9,-9.8 -21.9,-21.9 0,-12.1 9.8,-21.9 21.9,-21.9 m 0,-1.3 C 857.4,0 847,10.4 847,23.2 c 0,12.8 10.4,23.3 23.3,23.3 12.9,0 23.3,-10.4 23.3,-23.3 C 893.6,10.3 883.1,0 870.3,0 Z"
   id="path13" />
		</g>
	</g><g
         id="Isolation_Mode"
         transform="translate(0.00401184,0.00401184)">
	
</g><g
         id="g23836"><path
           d="m 239.20401,-80.769962 0.19895,288.547612 39.1003,-0.002 0.20075,-288.546201 z"
           id="path6"
           sodipodi:nodetypes="ccccc"
           style="stroke-width:1.18611" /><path
           d="M 105.30401,0.00401184 C 47.704012,-0.49598816 0.50401184,45.804012 0.00401184,103.40401 c -0.5,57.6 45.80000016,104.8 103.39999816,105.3 h 36.2 v -39.1 h -34.3 c -35.999998,0.4 -65.599998,-28.4 -65.999998,-64.5 -0.4,-36.099998 28.4,-65.599998 64.499998,-65.999998 v 0 c 0.5,0 1,0 1.5,0 36,0 65.2,29.2 65.4,65.199998 v 0 96.1 0 c 0,35.7 -29.1,64.8 -64.7,65.2 -17.099998,-0.1 -33.399998,-7 -45.399998,-19.1 l -27.7,27.7 c 19.2,19.3 45.2,30.3 72.399998,30.5 h 1.4 c 56.9,-0.8 102.6,-47 102.9,-103.9 v -99.1 c -1.4,-56.499998 -47.7,-101.59999816 -104.3,-101.69999816 z"
           id="path8" /><path
           d="m 641.16915,0.50401184 c -57.6,0 -104.4,46.70000016 -104.3,104.39999816 0,57.6 46.7,104.3 104.3,104.3 h 35.7 v -39.1 h -35.7 c -36,0 -65.2,-29.2 -65.2,-65.2 0,-35.999998 29.2,-65.199998 65.2,-65.199998 33.8,0 62,25.9 65,59.6 h -0.1 V 299.70401 h 39.1 v -194.8 0 c 0,-57.599998 -46.5,-104.39999816 -104,-104.39999816 z"
           id="path10" /><path
           id="path4"
           d="M 410.76963 0.50348338 C 353.16969 0.50348338 306.36961 47.203565 306.36961 104.90351 C 306.36961 162.60345 353.06969 209.30353 410.76963 209.30353 C 468.46958 209.30353 515.16966 162.60345 515.16966 104.90351 C 515.06966 47.303565 468.36958 0.60348328 410.76963 0.50348338 z M 410.76963 48.727087 C 426.13362 48.727087 438.59501 61.188488 438.59501 76.552465 C 438.59501 87.240197 432.56139 96.51869 423.71861 101.17967 L 438.59501 153.06081 L 382.94268 152.66933 L 397.97062 101.25702 C 389.0464 96.622215 382.94268 87.300309 382.94268 76.552465 C 382.94268 61.188488 395.40566 48.727087 410.76963 48.727087 z " /><path
           id="path17141"
           style="fill:none;stroke:#000000;stroke-width:36.6565;stroke-dasharray:none"
           d="m -36.001391,219.69098 c 0,0 0.07192,21.31847 0,76.01334 0,12.25708 6.539073,23.58308 17.154012,29.71162 5.30747,3.06427 11.2307415,4.5964 17.154013,4.5964 H 1.5931433 M 39.187678,219.69098 c 0,0 -0.07192,21.31847 0,76.01334 0,12.25708 -6.539073,23.58308 -17.154012,29.71162 -5.30747,3.06427 -11.230742,4.5964 -17.1540134,4.5964 H 1.5931433"
           sodipodi:nodetypes="csccc"
           transform="matrix(1,0,0,-1,409.17601,267.57004)" /></g></g></g><style
     type="text/css"
     id="style2">
	.st0{display:none;}
	.st1{display:inline;}
</style></svg>
